<?xml version="1.0" standalone="no"?>
<!DOCTYPE svg PUBLIC "-//W3C//DTD SVG 1.1//EN" "http://www.w3.org/Graphics/SVG/1.1/DTD/svg11.dtd">
<svg xmlns="http://www.w3.org/2000/svg">
<defs >
<font id="Cabin" horiz-adv-x="526" ><font-face
    font-family="Cabin"
    units-per-em="1000"
    panose-1="0 0 5 0 0 0 0 0 0 0"
    ascent="965"
    descent="-250"
    alphabetic="0" />
<glyph unicode=" " glyph-name="space" horiz-adv-x="225" />
<glyph unicode="!" glyph-name="exclam" horiz-adv-x="242" d="M79 198L59 700H183L163 198V172H79V198ZM67 106H175V0H67V106Z" />
<glyph unicode="&quot;" glyph-name="quotedbl" horiz-adv-x="322" d="M36 700H136L118 490H54L36 700ZM186 700H286L268 490H204L186 700Z" />
<glyph unicode="#" glyph-name="numbersign" horiz-adv-x="704" d="M153 216H33L73 307H188L233 422H107L136 507H265L339 700H420L345 507H478L553 700H633L559 507H672L643 422H527L482 307H610L569 216H447L361 -11H280L367 216H234L147 -11H67L153 216ZM401
307L446 422H314L269 307H401Z" />
<glyph unicode="$" glyph-name="dollar" horiz-adv-x="584" d="M553 100T500 51T342 -11L349 -144H271L278 -14Q217 -14 154 -1T51 31L64 132Q114 108 177 90T302 72Q372 72 410 97T449 174Q449 212 430 237T373 280T268 318Q200 338 155 361T83 424T55 525Q55
606 113 656T279 713L271 844H349L341 713Q395 710 443 697T527 666L517 565Q461 598 409 613T301 628Q236 628 198 604T159 530Q159 496 176 474T227 437T319 403Q437 367 495 318T553 181Q553 100 500 51Z" />
<glyph unicode="%" glyph-name="percent" horiz-adv-x="899" d="M129 314T85 370T40 517Q40 576 61 620T119 689T206 714Q281 714 326 660T372 517Q372 427 328 371T206 314Q129 314 85 370ZM246 386T268 420T290 517Q290 579 268 610T206 642Q168 642 145 610T122
517Q122 454 144 420T206 386Q246 386 268 420ZM610 700H694L292 0H207L610 700ZM616 -14T572 42T527 189Q527 248 548 292T606 361T693 386Q768 386 813 332T859 189Q859 99 815 43T693 -14Q616 -14 572 42ZM733 58T755 92T777 189Q777 251 755 282T693 314Q655
314 632 282T609 189Q609 126 631 92T693 58Q733 58 755 92Z" />
<glyph unicode="&amp;" glyph-name="ampersand" horiz-adv-x="611" d="M191 -23T140 1T63 68T36 162Q36 221 66 270T162 366Q121 416 104 457T87 536Q87 587 111 625T175 683T265 703Q347 703 388 665T430 565Q430 506 387 460T261 356L451 161Q470 184 478 241T490
351H571Q566 195 506 100L593 0H501L457 46Q411 8 366 -7T259 -23Q191 -23 140 1ZM293 455T321 486T349 559Q349 595 326 614T264 634Q224 634 196 608T168 534Q168 473 223 406Q293 455 321 486ZM357 45T412 105L204 313Q167 287 145 250T123 169Q123 115 158
80T261 45Q357 45 412 105Z" />
<glyph unicode="&apos;" glyph-name="quotesingle" horiz-adv-x="172" d="M36 700H136L118 490H54L36 700Z" />
<glyph unicode="(" glyph-name="parenleft" horiz-adv-x="313" d="M141 -44T106 62T70 307Q70 446 105 552T204 750H283Q226 655 193 548T160 307Q160 174 193 67T283 -136H204Q141 -44 106 62Z" />
<glyph unicode=")" glyph-name="parenright" horiz-adv-x="313" d="M87 -41T120 66T153 307Q153 440 120 547T30 750H109Q172 658 207 552T243 307Q243 168 208 62T109 -136H30Q87 -41 120 66Z" />
<glyph unicode="*" glyph-name="asterisk" horiz-adv-x="427" d="M172 559L34 640L61 688L191 599L186 750H241L236 599L366 688L393 640L255 559L393 477L366 429L236 518L241 367H186L191 518L61 429L34 477L172 559Z" />
<glyph unicode="+" glyph-name="plus" horiz-adv-x="442" d="M181 243H46V319H181V452H261V319H396V243H261V110H181V243Z" />
<glyph unicode="," glyph-name="comma" horiz-adv-x="216" d="M57 -107L93 0H58V106H166V10L114 -107H57Z" />
<glyph unicode="-" glyph-name="hyphen" horiz-adv-x="424" d="M57 354H367V268H57V354Z" />
<glyph unicode="." glyph-name="period" horiz-adv-x="208" d="M50 106H158V0H50V106Z" />
<glyph unicode="/" glyph-name="slash" horiz-adv-x="323" d="M258 700H353L85 -85H-10L258 700Z" />
<glyph unicode="0" glyph-name="zero" horiz-adv-x="698" d="M258 -14T192 33T90 164T54 356Q54 463 91 544T196 669T349 714Q437 714 504 670T607 544T644 356Q644 248 609 164T507 33T349 -14Q258 -14 192 33ZM442 72T492 146T543 356Q543 490 492 559T349 628Q262
628 209 558T155 356Q155 220 205 146T349 72Q442 72 492 146Z" />
<glyph unicode="1" glyph-name="one" horiz-adv-x="326" d="M154 563Q121 536 98 523T50 502L34 591Q76 605 117 635T181 700H246V0H154V563Z" />
<glyph unicode="2" glyph-name="two" horiz-adv-x="524" d="M248 291Q300 369 324 420T348 513Q348 565 319 595T239 626Q146 626 69 547L57 647Q95 677 144 696T249 715Q342 715 393 661T444 523Q444 457 419 398T332 247L226 87H471V1H57L248 291Z" />
<glyph unicode="3" glyph-name="three" horiz-adv-x="541" d="M481 324T481 192Q481 129 450 83T364 11T240 -14Q137 -14 40 39L63 127Q110 100 151 86T241 72Q305 72 342 104T380 189Q380 249 339 283T215 317H171V403H215Q280 403 317 433T355 517Q355 573 327
600T243 628Q203 628 167 613T91 571L75 668Q156 714 256 714Q352 714 405 663T459 529Q459 472 431 430T352 366Q481 324 481 192Z" />
<glyph unicode="4" glyph-name="four" horiz-adv-x="578" d="M551 262V181H461V0H365V181H20L392 700H461V262H551ZM365 262V523L179 262H365Z" />
<glyph unicode="5" glyph-name="five" horiz-adv-x="541" d="M333 442T386 413T467 333T495 217Q495 147 463 95T374 15T246 -14Q192 -14 141 0T51 39L74 127Q117 103 156 91T241 78Q308 78 349 116T391 217Q391 287 347 325T229 364Q166 364 88 344L131 700H461L457
610H209L188 437Q226 442 260 442Q333 442 386 413Z" />
<glyph unicode="6" glyph-name="six" horiz-adv-x="568" d="M377 420T424 393T498 317T525 208Q525 144 496 94T415 15T295 -14Q186 -14 124 57T62 246Q62 350 107 442T222 604T372 714L437 653Q347 608 278 537T178 378Q234 420 317 420Q377 420 424 393ZM354
68T390 107T427 205Q427 262 391 300T295 338Q236 338 199 300T162 204Q162 144 198 106T295 68Q354 68 390 107Z" />
<glyph unicode="7" glyph-name="seven" horiz-adv-x="503" d="M493 700L190 0H90L353 610H40V700H493Z" />
<glyph unicode="8" glyph-name="eight" horiz-adv-x="606" d="M491 356T518 309T546 200Q546 137 516 89T431 13T303 -14Q229 -14 174 13T90 88T60 200Q60 261 88 309T166 384Q131 409 112 445T92 525Q92 574 114 617T184 687T303 714Q374 714 420 687T488 617T510
525Q510 480 492 444T441 383Q491 356 518 309ZM248 628T218 600T187 525Q187 481 218 451T303 421Q356 421 385 450T415 525Q415 572 386 600T303 628Q248 628 218 600ZM371 72T409 106T448 200Q448 261 410 299T303 338Q235 338 197 300T158 200Q158 141 196
107T303 72Q371 72 409 106Z" />
<glyph unicode="9" glyph-name="nine" horiz-adv-x="568" d="M382 714T444 643T506 454Q506 353 463 264T351 107T206 0L141 61Q224 104 290 171T388 321Q331 280 251 280Q191 280 144 307T70 383T43 492Q43 556 72 606T153 685T273 714Q382 714 444 643ZM332
362T369 400T406 496Q406 556 370 594T273 632Q214 632 178 593T141 495Q141 438 177 400T273 362Q332 362 369 400Z" />
<glyph unicode=":" glyph-name="colon" horiz-adv-x="208" d="M50 490H158V384H50V490ZM50 106H158V0H50V106Z" />
<glyph unicode=";" glyph-name="semicolon" horiz-adv-x="216" d="M57 -107L93 0H58V106H166V10L114 -107H57ZM58 490H166V384H58V490Z" />
<glyph unicode="&lt;" glyph-name="less" horiz-adv-x="417" d="M36 324L391 487V401L112 281L391 161V75L36 238V324Z" />
<glyph unicode="=" glyph-name="equal" horiz-adv-x="442" d="M46 394H396V318H46V394ZM46 236H396V160H46V236Z" />
<glyph unicode="&gt;" glyph-name="greater" horiz-adv-x="417" d="M26 75V161L305 281L26 401V487L381 324V238L26 75Z" />
<glyph unicode="?" glyph-name="question" horiz-adv-x="462" d="M155 197Q155 238 166 270T193 325T237 383Q277 432 292 459T308 525Q308 575 276 601T198 628Q133 628 69 590L60 671Q129 714 221 714Q281 714 324 690T390 626T412 537Q412 501 401 472T375
423T327 361Q286 311 268 279T249 203V172H155V197ZM148 106H256V0H148V106Z" />
<glyph unicode="@" glyph-name="at" horiz-adv-x="726" d="M568 11T483 -38T298 -87Q183 -87 117 -19T50 170Q50 276 101 364T240 502T427 553Q544 553 610 485T676 300Q676 215 641 155T534 94Q512 94 502 104T491 145Q491 170 497 196T518 274Q536 332 546 379Q524
402 494 417T425 432Q364 432 305 391T208 285T170 153Q170 105 192 73T261 40Q307 40 358 71T441 156Q441 151 440 141T438 121Q438 91 452 67T496 42Q520 42 554 58T615 96L618 93Q568 11 483 -38ZM272 106T261 124T250 173Q250 225 279 270T352 343T434 371Q471
371 479 349Q470 297 438 240T366 144T294 106Q272 106 261 124Z" />
<glyph unicode="A" glyph-name="A" horiz-adv-x="616" d="M442 189H174L107 0H7L258 700H358L609 0H509L442 189ZM412 275L308 567L204 275H412Z" />
<glyph unicode="B" glyph-name="B" horiz-adv-x="597" d="M497 365T532 320T567 200Q567 107 508 54T344 0H80V700H301Q397 700 449 657T502 529Q502 479 484 440T431 381Q497 365 532 320ZM175 409H289Q345 409 374 431T404 512Q404 570 375 592T289 615H175V409ZM395
86T429 115T463 203Q463 323 336 323H175V86H336Q395 86 429 115Z" />
<glyph unicode="C" glyph-name="C" horiz-adv-x="616" d="M290 -14T210 31T85 158T39 350Q39 459 85 541T212 669T396 714Q447 714 496 703T583 673L573 585Q483 628 395 628Q315 628 258 592T172 492T143 350Q143 271 172 208T257 109T393 72Q487 72 573 114L583
26Q496 -14 392 -14Q290 -14 210 31Z" />
<glyph unicode="D" glyph-name="D" horiz-adv-x="727" d="M80 700H339Q441 700 520 659T643 538T687 350Q687 242 643 163T520 42T339 0H80V700ZM339 86Q456 86 519 157T583 350Q583 471 520 542T339 614H175V86H339Z" />
<glyph unicode="E" glyph-name="E" horiz-adv-x="554" d="M80 700H507V614H175V409H439V323H175V86H516V0H80V700Z" />
<glyph unicode="F" glyph-name="F" horiz-adv-x="523" d="M80 700H507V614H175V409H431V323H175V0H80V700Z" />
<glyph unicode="G" glyph-name="G" horiz-adv-x="672" d="M285 -14T207 31T84 159T39 351Q39 460 85 542T214 669T401 714Q454 714 505 703T598 674L589 591Q492 628 404 628Q317 628 259 592T172 493T143 350Q143 224 210 148T409 72Q437 72 469 76T526 91V265H416V351H621V39Q577
15 516 1T382 -14Q285 -14 207 31Z" />
<glyph unicode="H" glyph-name="H" horiz-adv-x="706" d="M80 700H175V411H531V700H626V0H531V321H175V0H80V700Z" />
<glyph unicode="I" glyph-name="I" horiz-adv-x="255" d="M80 700H175V0H80V700Z" />
<glyph unicode="J" glyph-name="J" horiz-adv-x="255" d="M-20 -90Q34 -90 57 -67T80 8V700H175V-14Q175 -96 137 -134T19 -172H-7L-20 -90Z" />
<glyph unicode="K" glyph-name="K" horiz-adv-x="566" d="M80 700H175V0H80V700ZM185 371L444 700H559L293 373L562 0H444L185 371Z" />
<glyph unicode="L" glyph-name="L" horiz-adv-x="501" d="M80 700H175V86H496V0H80V700Z" />
<glyph unicode="M" glyph-name="M" horiz-adv-x="812" d="M142 700H223L407 353L589 700H671L764 0H664L598 529L408 166L214 529L148 0H48L142 700Z" />
<glyph unicode="N" glyph-name="N" horiz-adv-x="704" d="M80 700H183L528 176V700H624V0H543L175 553V0H80V700Z" />
<glyph unicode="O" glyph-name="O" horiz-adv-x="770" d="M285 -14T207 31T84 158T40 350Q40 459 84 541T206 669T385 714Q485 714 563 669T686 542T730 350Q730 241 686 159T564 31T385 -14Q285 -14 207 31ZM463 78T518 113T600 210T628 350Q628 428 601 489T518
586T385 622Q307 622 252 587T170 490T142 350Q142 272 169 211T252 114T385 78Q463 78 518 113Z" />
<glyph unicode="P" glyph-name="P" horiz-adv-x="572" d="M80 700H311Q423 700 485 646T548 473Q548 357 485 301T311 245H180V0H80V700ZM297 330Q374 330 412 365T450 472Q450 545 414 580T297 615H180V330H297Z" />
<glyph unicode="Q" glyph-name="Q" horiz-adv-x="770" d="M730 276T710 214T650 105L715 41L661 -14L594 51Q507 -14 385 -14Q285 -14 207 31T84 158T40 350Q40 459 84 541T206 669T385 714Q485 714 563 669T686 542T730 350Q730 276 710 214ZM468 78T526 119L441
202L495 257L580 174Q628 245 628 350Q628 428 601 489T518 586T385 622Q307 622 252 587T170 490T142 350Q142 272 169 211T252 114T385 78Q468 78 526 119Z" />
<glyph unicode="R" glyph-name="R" horiz-adv-x="603" d="M80 700H307Q421 700 485 648T549 487Q549 347 427 290L584 0H468L326 273H180V0H80V700ZM306 358Q376 358 413 392T450 487Q450 548 414 581T306 615H180V358H306Z" />
<glyph unicode="S" glyph-name="S" horiz-adv-x="584" d="M218 -14T154 -1T51 31L64 132Q114 108 177 90T302 72Q372 72 410 97T449 174Q449 212 430 237T373 280T268 318Q200 338 155 361T83 424T55 525Q55 610 120 662T305 714Q369 714 426 700T527 666L517
565Q461 598 409 613T301 628Q236 628 198 604T159 530Q159 496 176 474T227 437T319 403Q437 367 495 318T553 181Q553 89 484 38T280 -14Q218 -14 154 -1Z" />
<glyph unicode="T" glyph-name="T" horiz-adv-x="533" d="M219 614H15V700H518V614H314V0H219V614Z" />
<glyph unicode="U" glyph-name="U" horiz-adv-x="724" d="M217 -14T145 67T72 297V700H167V323Q167 208 208 140T362 72Q475 72 516 140T557 323V700H652V297Q652 149 580 68T362 -14Q217 -14 145 67Z" />
<glyph unicode="V" glyph-name="V" horiz-adv-x="610" d="M606 700L355 0H255L4 700H104L305 133L506 700H606Z" />
<glyph unicode="W" glyph-name="W" horiz-adv-x="946" d="M4 700H104L252 123L423 686H523L694 123L842 700H942L744 0H643L473 563L303 0H202L4 700Z" />
<glyph unicode="X" glyph-name="X" horiz-adv-x="593" d="M242 353L8 700H118L297 435L475 700H585L352 353L589 0H479L297 271L114 0H4L242 353Z" />
<glyph unicode="Y" glyph-name="Y" horiz-adv-x="567" d="M577 700L331 303V0H236V303L-11 700H97L283 396L469 700H577Z" />
<glyph unicode="Z" glyph-name="Z" horiz-adv-x="549" d="M161 86H537V0H9L388 614H54V700H542L161 86Z" />
<glyph unicode="[" glyph-name="bracketleft" horiz-adv-x="327" d="M70 750H327V682H153V-67H327V-135H70V750Z" />
<glyph unicode="\" glyph-name="backslash" horiz-adv-x="303" d="M-10 700H85L333 -85H238L-10 700Z" />
<glyph unicode="]" glyph-name="bracketright" horiz-adv-x="327" d="M0 -135V-67H174V682H0V750H257V-135H0Z" />
<glyph unicode="^" glyph-name="asciicircum" horiz-adv-x="512" d="M50 543L256 759L462 543V442L256 638L50 442V543Z" />
<glyph unicode="_" glyph-name="underscore" horiz-adv-x="566" d="M3 -36H563V-122H3V-36Z" />
<glyph unicode="`" glyph-name="grave" horiz-adv-x="467" d="M140 649V747L327 637V576L140 649Z" />
<glyph unicode="a" glyph-name="a" horiz-adv-x="480" d="M107 -10T66 30T24 132Q24 225 112 265T317 307Q317 373 292 396T210 420Q179 420 148 411T81 376L68 449Q98 472 142 486T234 500Q297 500 334 478T389 405T407 265V165Q407 125 410 105T426 73T463 62H472L458
-10H451Q409 -10 385 -2T349 21T325 62Q263 -10 175 -10Q107 -10 66 30ZM228 62T261 80T317 128V245Q209 241 163 217T116 137Q116 99 136 81T192 62Q228 62 261 80Z" />
<glyph unicode="b" glyph-name="b" horiz-adv-x="555" d="M368 500T418 465T496 372T523 245Q523 175 494 117T414 24T302 -10Q257 -10 215 8T150 60L140 0H60V750H150V433Q177 464 217 482T302 500Q368 500 418 465ZM354 70T392 120T431 245Q431 321 393 370T291
420Q229 420 187 375T145 245Q145 158 186 114T291 70Q354 70 392 120Z" />
<glyph unicode="c" glyph-name="c" horiz-adv-x="454" d="M206 -10T149 23T62 113T33 242Q33 358 98 429T293 500Q369 500 427 471L413 392Q352 420 291 420Q211 420 168 375T125 246Q125 163 166 116T289 69Q354 69 414 99L426 27Q404 12 366 1T286 -10Q206 -10 149 23Z" />
<glyph unicode="d" glyph-name="d" horiz-adv-x="555" d="M495 750V0H415L405 60Q380 26 340 8T255 -10Q193 -10 142 24T62 116T32 244Q32 312 59 371T138 465T255 500Q299 500 338 484T405 435V750H495ZM307 70T340 88T394 146T415 244Q415 299 394 339T340 399T271
420Q203 420 164 371T124 244Q124 170 164 120T271 70Q307 70 340 88Z" />
<glyph unicode="e" glyph-name="e" horiz-adv-x="512" d="M212 -10T153 24T62 118T31 249Q31 318 59 375T142 466T271 500Q365 500 423 445T482 293Q482 268 478 245H123Q132 150 181 110T307 70Q384 70 448 99L460 28Q375 -10 296 -10Q212 -10 153 24ZM389 307Q389
360 359 390T269 420Q211 420 178 392T131 307H389Z" />
<glyph unicode="f" glyph-name="f" horiz-adv-x="331" d="M95 420H10L22 490H95V606Q95 673 130 711T233 750Q277 750 311 737L297 661Q273 670 247 670Q185 670 185 600V490H317V420H185V0H95V420Z" />
<glyph unicode="g" glyph-name="g" horiz-adv-x="498" d="M155 -250T91 -212T26 -104Q26 -27 111 11Q63 35 63 73Q63 121 121 144Q80 169 58 212T36 309Q36 363 60 406T130 475T238 500Q304 500 358 462Q411 492 480 492H488L477 432H454Q445 432 428 430T398
425Q419 401 430 371T441 309Q441 253 417 209T346 139T238 113Q202 113 172 122Q149 114 149 96Q149 72 204 64L335 43Q417 30 459 -4T501 -98Q501 -173 437 -211T259 -250Q155 -250 91 -212ZM294 185T324 218T355 308Q355 362 325 395T238 428Q182 428 152 395T122
308Q122 252 152 219T238 185Q294 185 324 218ZM336 -170T373 -152T410 -100Q410 -74 388 -59T320 -34L180 -10Q150 -24 131 -44T112 -90Q112 -131 153 -150T267 -170Q336 -170 373 -152Z" />
<glyph unicode="h" glyph-name="h" horiz-adv-x="542" d="M388 500T437 439T486 273V0H396V262Q396 343 367 381T275 420Q237 420 205 403T151 353V0H60V750H151V443Q180 471 214 485T295 500Q388 500 437 439Z" />
<glyph unicode="i" glyph-name="i" horiz-adv-x="212" d="M61 700H151V600H61V700ZM61 490H151V0H61V490Z" />
<glyph unicode="j" glyph-name="j" horiz-adv-x="212" d="M61 700H151V600H61V700ZM-12 -173Q19 -170 34 -162T55 -133T61 -73V490H151V-107Q151 -170 115 -199T28 -237L-2 -242L-12 -173Z" />
<glyph unicode="k" glyph-name="k" horiz-adv-x="448" d="M60 750H150V269L330 490H440L245 262L445 0H335L150 249V0H60V750Z" />
<glyph unicode="l" glyph-name="l" horiz-adv-x="236" d="M121 -10T91 24T60 108V750H150V160Q150 116 155 96T177 69T229 62L216 -10H187Q121 -10 91 24Z" />
<glyph unicode="m" glyph-name="m" horiz-adv-x="877" d="M821 500T821 289V0H731V288Q731 357 704 388T616 420Q486 420 486 284V0H396V270Q396 354 367 387T281 420Q237 420 203 404T151 356V0H61V490H131L141 438Q178 471 215 485T296 500Q408 500 454 402Q505
500 633 500Q821 500 821 289Z" />
<glyph unicode="n" glyph-name="n" horiz-adv-x="559" d="M61 490H131L141 438Q180 473 219 486T303 500Q503 500 503 270V0H413V270Q413 349 384 384T285 420Q241 420 205 404T151 356V0H61V490Z" />
<glyph unicode="o" glyph-name="o" horiz-adv-x="550" d="M200 -10T145 23T61 115T32 245Q32 317 61 375T145 466T275 500Q349 500 404 467T489 375T518 245Q518 173 489 115T405 24T275 -10Q200 -10 145 23ZM347 70T386 116T426 245Q426 328 387 374T275 420Q203
420 164 374T124 245Q124 162 163 116T275 70Q347 70 386 116Z" />
<glyph unicode="p" glyph-name="p" horiz-adv-x="557" d="M375 500T423 467T498 375T524 245Q524 172 500 115T427 24T310 -10Q259 -10 217 8T151 60V-242H61V490H131L141 422Q203 500 310 500Q375 500 423 467ZM358 70T395 116T432 245Q432 327 395 373T293 420Q229
420 188 375T146 245Q146 157 187 114T293 70Q358 70 395 116Z" />
<glyph unicode="q" glyph-name="q" horiz-adv-x="557" d="M496 490V-242H406V59Q382 25 342 8T252 -10Q182 -10 133 23T58 114T33 245Q33 313 59 371T135 465T251 500Q308 500 347 481T416 423L426 490H496ZM329 70T370 113T411 245Q411 330 370 375T264 420Q199
420 162 374T125 245Q125 163 162 117T264 70Q329 70 370 113Z" />
<glyph unicode="r" glyph-name="r" horiz-adv-x="316" d="M61 490H135L146 409Q184 456 218 478T291 500Q303 500 314 497L305 398Q292 401 275 401Q238 401 205 385T157 346V0H61V490Z" />
<glyph unicode="s" glyph-name="s" horiz-adv-x="414" d="M142 -10T99 3T32 33L43 120Q63 102 104 86T196 70Q243 70 268 86T294 131Q294 165 266 182T196 212Q150 224 119 237T65 279T42 353Q42 416 87 458T226 500Q269 500 299 492T359 468L348 386Q324 406
295 417T228 429Q184 429 159 413T133 363Q133 341 145 328T179 305T247 282Q304 265 345 234T387 136Q387 76 345 33T200 -10Q142 -10 99 3Z" />
<glyph unicode="t" glyph-name="t" horiz-adv-x="337" d="M165 -10T134 24T102 107V420H18L26 490H102V611L192 620V490H321V420H192V162Q192 111 198 92T223 68T295 62H318L311 -10H230Q165 -10 134 24Z" />
<glyph unicode="u" glyph-name="u" horiz-adv-x="524" d="M149 -10T103 43T56 205V490H146V230Q146 150 173 110T260 70Q296 70 326 84T373 126V490H463V0H383L373 54Q349 21 317 6T237 -10Q149 -10 103 43Z" />
<glyph unicode="v" glyph-name="v" horiz-adv-x="492" d="M9 490H109L246 99L382 490H483L297 0H196L9 490Z" />
<glyph unicode="w" glyph-name="w" horiz-adv-x="725" d="M12 490H118L212 99L316 475H409L514 99L608 490H714L566 0H465L363 362L260 0H159L12 490Z" />
<glyph unicode="x" glyph-name="x" horiz-adv-x="474" d="M182 244L15 490H116L239 296L352 490H457L296 252L463 0H362L238 193L112 0H11L182 244Z" />
<glyph unicode="y" glyph-name="y" horiz-adv-x="505" d="M211 22L7 490H107L260 126L398 490H498L198 -242H98L211 22Z" />
<glyph unicode="z" glyph-name="z" horiz-adv-x="471" d="M173 79H441V0H22L295 411H38V490H446L173 79Z" />
<glyph unicode="{" glyph-name="braceleft" horiz-adv-x="308" d="M222 681T194 655T165 570Q165 547 169 491Q173 437 173 414Q173 370 153 345T94 307Q133 294 153 269T173 200Q173 177 169 123Q165 67 165 44Q165 -15 193 -41T279 -67H306V-136H269Q179 -136
136 -96T92 14Q92 35 96 89Q100 145 100 170Q100 226 82 251T20 277V337Q64 337 82 362T100 444Q100 469 96 525Q92 579 92 600Q92 669 135 709T269 750H306V681H279Q222 681 194 655Z" />
<glyph unicode="|" glyph-name="bar" horiz-adv-x="229" d="M70 750H159V-209H70V750Z" />
<glyph unicode="}" glyph-name="braceright" horiz-adv-x="308" d="M208 388T226 363T288 337V277Q244 277 226 252T208 170Q208 145 212 89Q216 35 216 14Q216 -55 173 -95T39 -136H2V-67H29Q86 -67 114 -41T143 44Q143 67 139 123Q135 177 135 200Q135 244 155
269T214 307Q175 320 155 345T135 414Q135 437 139 491Q143 547 143 570Q143 629 115 655T29 681H2V750H39Q129 750 172 710T216 600Q216 579 212 525Q208 469 208 444Q208 388 226 363Z" />
<glyph unicode="~" glyph-name="asciitilde" horiz-adv-x="462" d="M291 294T273 300T228 319Q209 330 194 335T160 341Q142 341 132 330T121 298H46Q48 359 74 391T147 423Q172 423 191 417T238 397Q258 387 272 382T302 376Q320 376 330 387T341 419H416Q414
358 388 326T315 294Q291 294 273 300Z" />
<glyph unicode="&#xa0;" glyph-name="uni00A0" horiz-adv-x="225" />
<glyph unicode="&#xa1;" glyph-name="exclamdown" horiz-adv-x="242" d="M175 500V394H67V500H175ZM163 328V302L183 -200H59L79 302V328H163Z" />
<glyph unicode="&#xa2;" glyph-name="cent" horiz-adv-x="454" d="M426 27Q409 15 379 5T314 -9L322 -144H244L252 -8Q147 2 90 71T33 242Q33 347 88 416T252 498L244 630H322L314 499Q375 496 427 471L413 392Q352 420 291 420Q211 420 168 375T125 246Q125 163
166 116T289 69Q354 69 414 99L426 27Z" />
<glyph unicode="&#xa3;" glyph-name="sterling" horiz-adv-x="520" d="M489 90V0H50Q88 86 107 154T137 316H60V390H145L156 500Q166 603 214 658T354 714Q422 714 484 679L474 578Q444 603 418 615T361 628Q312 628 285 597T251 508L239 390H426V316H231Q222
238 210 188T175 90H489Z" />
<glyph unicode="&#xa4;" glyph-name="currency" horiz-adv-x="696" d="M604 251T545 179L636 88L608 60L516 152Q447 94 348 94Q247 94 180 152L88 60L60 88L152 180Q123 213 108 256T92 348Q92 396 107 439T152 516L60 608L88 636L180 544Q214 572 257 587T348
602Q445 602 516 544L608 636L636 608L544 516Q604 445 604 348Q604 251 545 179ZM427 176T470 224T514 348Q514 423 471 471T348 520Q269 520 226 472T182 348Q182 273 225 225T348 176Q427 176 470 224Z" />
<glyph unicode="&#xa5;" glyph-name="yen" horiz-adv-x="567" d="M367 361H483V287H331V221H483V147H331V0H236V147H84V221H236V287H84V361H200L-11 700H97L283 396L469 700H577L367 361Z" />
<glyph unicode="&#xa6;" glyph-name="brokenbar" horiz-adv-x="232" d="M72 750H160V342H72V750ZM72 198H160V-210H72V198Z" />
<glyph unicode="&#xa7;" glyph-name="section" horiz-adv-x="456" d="M163 -84T123 -73T63 -45L76 18Q144 -23 207 -23Q255 -23 282 -2T310 63Q310 89 295 107T258 136T194 165Q144 185 113 202T59 251T37 330Q37 435 146 479Q112 503 97 531T82 598Q82 665 125
707T247 750Q291 750 330 738T394 710L381 647Q350 666 317 678T251 690Q207 690 181 668T154 612Q154 576 181 555T264 508Q314 486 344 467T397 414T419 331Q419 290 396 251T315 188Q374 152 374 69Q374 7 334 -38T206 -84Q163 -84 123 -73ZM303 229T324 258T345
324Q345 395 206 448Q159 435 132 411T105 342Q105 309 124 287T177 251T267 219Q303 229 324 258Z" />
<glyph unicode="&#xa8;" glyph-name="dieresis" horiz-adv-x="478" d="M100 671H186V591H100V671ZM292 671H378V591H292V671Z" />
<glyph unicode="&#xa9;" glyph-name="copyright" horiz-adv-x="720" d="M270 37T200 78T89 193T49 365Q49 462 89 536T199 651T360 692Q450 692 520 652T630 537T670 365Q670 268 631 194T520 78T360 37Q270 37 200 78ZM444 81T502 118T589 219T618 365Q618 447
589 511T502 611T360 648Q276 648 218 612T130 511T101 365Q101 283 130 219T217 118T360 81Q444 81 502 118ZM299 197T255 242T211 363Q211 439 255 484T369 530Q416 530 459 511L452 451Q405 470 369 470Q325 470 302 441T278 363Q278 316 301 286T369 256Q407
256 452 276L459 217Q421 197 369 197Q299 197 255 242Z" />
<glyph unicode="&#xaa;" glyph-name="ordfeminine" horiz-adv-x="349" d="M83 434T58 457T33 519Q33 572 87 595T201 620Q200 642 188 652T148 662Q114 662 65 642L59 702Q111 725 168 725Q277 725 277 617V537Q277 516 279 508T286 497T303 495H313L306 434H279Q255
434 238 442T212 465Q197 450 173 442T120 434Q83 434 58 457ZM202 570Q112 563 112 521Q112 506 121 498T148 490Q178 490 202 507V570Z" />
<glyph unicode="&#xab;" glyph-name="guillemotleft" horiz-adv-x="582" d="M14 284L173 490H282L123 284L282 78H173L14 284ZM274 284L433 490H542L383 284L542 78H433L274 284Z" />
<glyph unicode="&#xac;" glyph-name="logicalnot" horiz-adv-x="522" d="M396 330H46V406H476V151H396V330Z" />
<glyph unicode="&#xad;" glyph-name="uni00AD" horiz-adv-x="444" d="M67 354H377V268H67V354Z" />
<glyph unicode="&#xae;" glyph-name="registered" horiz-adv-x="720" d="M270 36T199 77T88 192T48 365Q48 463 88 537T199 652T360 693Q450 693 520 653T631 538T671 365Q671 267 631 193T521 77T360 36Q270 36 199 77ZM444 80T502 117T590 218T619 365Q619 447
590 511T503 612T360 649Q276 649 218 612T130 511T100 365Q100 283 129 219T217 117T360 80Q444 80 502 117ZM244 531H362Q415 531 443 507T472 434Q472 374 418 344L489 210H423L364 327H306V210H244V531ZM356 383Q381 383 394 396T407 433Q407 456 394 469T356
482H306V383H356Z" />
<glyph unicode="&#xaf;" glyph-name="overscore" horiz-adv-x="520" d="M100 662H420V591H100V662Z" />
<glyph unicode="&#xb0;" glyph-name="degree" horiz-adv-x="291" d="M83 482T47 520T10 618Q10 677 46 716T145 755Q208 755 244 716T281 618Q281 559 245 521T145 482Q83 482 47 520ZM187 522T209 550T232 618Q232 658 210 686T145 715Q104 715 81 686T58 618Q58
579 81 551T145 522Q187 522 209 550Z" />
<glyph unicode="&#xb1;" glyph-name="plusminus" horiz-adv-x="462" d="M196 312H56V384H196V520H266V384H406V312H266V176H196V312ZM56 132H406V60H56V132Z" />
<glyph unicode="&#xb2;" glyph-name="uni00B2" horiz-adv-x="332" d="M294 454V386H37L148 544Q175 583 184 603T193 646Q193 669 179 684T139 700Q112 700 89 689T43 657L36 734Q58 750 89 761T151 772Q206 772 240 740T275 656Q275 622 264 593T216 513L175 454H294Z" />
<glyph unicode="&#xb3;" glyph-name="uni00B3" horiz-adv-x="357" d="M267 570T284 546T302 486Q302 434 264 403T165 372Q96 372 40 401L59 469Q85 453 107 445T156 437Q186 437 203 450T220 489Q220 545 153 545H125V610H154Q181 610 197 623T213 660Q213 681
198 694T154 707Q112 707 69 679L62 748Q110 772 170 772Q226 772 258 745T290 673Q290 610 235 581Q267 570 284 546Z" />
<glyph unicode="&#xb4;" glyph-name="acute" horiz-adv-x="467" d="M140 637L327 747V649L140 576V637Z" />
<glyph unicode="&#xb5;" glyph-name="uni00B5" horiz-adv-x="608" d="M80 490H169V212Q169 69 286 69Q325 69 353 83T407 127V490H494V170Q494 114 503 88T541 62H563L547 -10H521Q442 -10 414 63Q385 26 354 8T280 -11Q209 -11 168 27V-242H80V490Z" />
<glyph unicode="&#xb6;" glyph-name="paragraph" horiz-adv-x="622" d="M315 243Q221 248 158 282T64 367T33 474Q33 532 65 583T162 667T321 700H580V633H505V0H457V633H356V0H315V243Z" />
<glyph unicode="&#xb7;" glyph-name="middot" horiz-adv-x="238" d="M57 343H181V213H57V343Z" />
<glyph unicode="&#xb8;" glyph-name="cedilla" horiz-adv-x="384" d="M237 -54T260 -75T284 -135Q284 -178 254 -202T178 -226Q134 -226 100 -207L115 -158Q146 -175 178 -175Q200 -175 213 -165T226 -137Q226 -118 214 -108T176 -97Q153 -97 130 -105L156 0H206L189
-54H197Q237 -54 260 -75Z" />
<glyph unicode="&#xb9;" glyph-name="uni00B9" horiz-adv-x="237" d="M98 665Q71 640 39 632L32 698Q56 706 80 723T118 758H173V386H98V665Z" />
<glyph unicode="&#xba;" glyph-name="ordmasculine" horiz-adv-x="370" d="M139 434T105 454T52 507T33 580Q33 620 51 653T104 705T185 725Q231 725 265 706T318 653T337 580Q337 540 319 507T266 454T185 434Q139 434 105 454ZM220 494T240 518T260 580Q260
618 240 642T185 666Q150 666 130 642T110 580Q110 542 130 518T185 494Q220 494 240 518Z" />
<glyph unicode="&#xbb;" glyph-name="guillemotright" horiz-adv-x="583" d="M460 284L301 490H410L569 284L410 78H301L460 284ZM200 284L41 490H150L309 284L150 78H41L200 284Z" />
<glyph unicode="&#xbc;" glyph-name="onequarter" horiz-adv-x="632" d="M352 607Q325 582 293 574L286 640Q310 648 334 665T372 700H427V328H352V607ZM463 700H547L145 0H60L463 700ZM594 138V79H545V0H479V79H280L489 372H545V138H594ZM479 138V260L394 138H479Z" />
<glyph unicode="&#xbd;" glyph-name="onehalf" horiz-adv-x="679" d="M453 700H537L135 0H50L453 700ZM649 68V0H392L503 158Q530 197 539 217T548 260Q548 283 534 298T494 314Q467 314 444 303T398 271L391 348Q413 364 444 375T506 386Q561 386 595 354T630
270Q630 236 619 207T571 127L530 68H649ZM352 607Q325 582 293 574L286 640Q310 648 334 665T372 700H427V328H352V607Z" />
<glyph unicode="&#xbe;" glyph-name="threequarters" horiz-adv-x="704" d="M535 700H619L217 0H132L535 700ZM267 512T284 488T302 428Q302 376 264 345T165 314Q96 314 40 343L59 411Q85 395 107 387T156 379Q186 379 203 392T220 431Q220 487 153 487H125V552H154Q181
552 197 565T213 602Q213 623 198 636T154 649Q112 649 69 621L62 690Q110 714 170 714Q226 714 258 687T290 615Q290 552 235 523Q267 512 284 488ZM666 138V79H617V0H551V79H352L561 372H617V138H666ZM551 138V260L466 138H551Z" />
<glyph unicode="&#xbf;" glyph-name="questiondown" horiz-adv-x="392" d="M299 394H191V500H299V394ZM292 303Q292 262 281 230T254 175T210 117Q170 68 155 41T139 -25Q139 -75 171 -101T249 -128Q314 -128 378 -90L387 -171Q318 -214 226 -214Q166 -214 123
-190T57 -126T35 -37Q35 -1 46 28T72 77T120 139Q161 189 179 221T198 297V328H292V303Z" />
<glyph unicode="&#xc0;" glyph-name="Agrave" horiz-adv-x="616" d="M442 189H174L107 0H7L258 700H358L609 0H509L442 189ZM412 275L308 567L204 275H412ZM214 822V917L401 822V764L214 822Z" />
<glyph unicode="&#xc1;" glyph-name="Aacute" horiz-adv-x="616" d="M442 189H174L107 0H7L258 700H358L609 0H509L442 189ZM412 275L308 567L204 275H412ZM215 822L402 917V822L215 764V822Z" />
<glyph unicode="&#xc2;" glyph-name="Acircumflex" horiz-adv-x="616" d="M442 189H174L107 0H7L258 700H358L609 0H509L442 189ZM412 275L308 567L204 275H412ZM435 814V753L308 819L181 753V814L308 904L435 814Z" />
<glyph unicode="&#xc3;" glyph-name="Atilde" horiz-adv-x="616" d="M442 189H174L107 0H7L258 700H358L609 0H509L442 189ZM412 275L308 567L204 275H412ZM375 788T357 793T314 810Q270 829 251 829Q235 829 226 820T217 793H152Q152 841 171 867T225 893Q241
893 259 888T302 871Q346 852 365 852Q381 852 390 861T399 888H464Q464 840 445 814T391 788Q375 788 357 793Z" />
<glyph unicode="&#xc4;" glyph-name="Adieresis" horiz-adv-x="616" d="M442 189H174L107 0H7L258 700H358L609 0H509L442 189ZM412 275L308 567L204 275H412ZM169 869H255V794H169V869ZM361 869H447V794H361V869Z" />
<glyph unicode="&#xc5;" glyph-name="Aring" horiz-adv-x="616" d="M442 189H174L107 0H7L258 700H358L609 0H509L442 189ZM412 275L308 567L204 275H412ZM259 756T232 784T204 854Q204 894 232 923T308 952Q357 952 384 923T412 854Q412 813 385 785T308 756Q259
756 232 784ZM330 800T346 815T362 854Q362 877 346 892T308 908Q286 908 270 893T254 854Q254 830 270 815T308 800Q330 800 346 815Z" />
<glyph unicode="&#xc6;" glyph-name="AE" horiz-adv-x="866" d="M335 700H818V613H506V409H747V323H506V86H828V0H392V180H178L86 0H-7L335 700ZM392 272V611L221 272H392Z" />
<glyph unicode="&#xc7;" glyph-name="Ccedilla" horiz-adv-x="616" d="M503 -11T407 -14L394 -54H402Q442 -54 465 -75T489 -135Q489 -178 459 -202T383 -226Q339 -226 305 -207L320 -158Q351 -175 383 -175Q405 -175 418 -165T431 -137Q431 -118 419 -108T381
-97Q358 -97 335 -105L358 -13Q265 -6 193 41T80 167T39 350Q39 459 85 541T212 669T396 714Q447 714 496 703T583 673L573 585Q483 628 395 628Q315 628 258 592T172 492T143 350Q143 271 172 208T257 109T393 72Q487 72 573 114L583 26Q503 -11 407 -14Z" />
<glyph unicode="&#xc8;" glyph-name="Egrave" horiz-adv-x="554" d="M80 700H507V614H175V409H439V323H175V86H516V0H80V700ZM210 822V917L397 822V764L210 822Z" />
<glyph unicode="&#xc9;" glyph-name="Eacute" horiz-adv-x="554" d="M80 700H507V614H175V409H439V323H175V86H516V0H80V700ZM211 822L398 917V822L211 764V822Z" />
<glyph unicode="&#xca;" glyph-name="Ecircumflex" horiz-adv-x="554" d="M80 700H507V614H175V409H439V323H175V86H516V0H80V700ZM431 814V753L304 819L177 753V814L304 904L431 814Z" />
<glyph unicode="&#xcb;" glyph-name="Edieresis" horiz-adv-x="554" d="M80 700H507V614H175V409H439V323H175V86H516V0H80V700ZM165 881H251V801H165V881ZM357 881H443V801H357V881Z" />
<glyph unicode="&#xcc;" glyph-name="Igrave" horiz-adv-x="255" d="M80 700H175V0H80V700ZM34 822V917L221 822V764L34 822Z" />
<glyph unicode="&#xcd;" glyph-name="Iacute" horiz-adv-x="255" d="M80 700H175V0H80V700ZM35 822L222 917V822L35 764V822Z" />
<glyph unicode="&#xce;" glyph-name="Icircumflex" horiz-adv-x="255" d="M80 700H175V0H80V700ZM255 814V753L128 819L1 753V814L128 904L255 814Z" />
<glyph unicode="&#xcf;" glyph-name="Idieresis" horiz-adv-x="255" d="M80 700H175V0H80V700ZM-11 869H75V794H-11V869ZM181 869H267V794H181V869Z" />
<glyph unicode="&#xd0;" glyph-name="Eth" horiz-adv-x="729" d="M88 313H18V397H88V700H344Q445 700 523 658T645 537T689 350Q689 242 645 163T523 42T344 0H88V313ZM344 87Q462 87 524 157T587 350Q587 472 525 543T344 614H178V397H311V313H178V87H344Z" />
<glyph unicode="&#xd1;" glyph-name="Ntilde" horiz-adv-x="704" d="M80 700H183L528 176V700H624V0H543L175 553V0H80V700ZM423 788T405 793T362 810Q318 829 299 829Q283 829 274 820T265 793H200Q200 841 219 867T273 893Q289 893 307 888T350 871Q394 852
413 852Q429 852 438 861T447 888H512Q512 840 493 814T439 788Q423 788 405 793Z" />
<glyph unicode="&#xd2;" glyph-name="Ograve" horiz-adv-x="770" d="M285 -14T207 31T84 158T40 350Q40 459 84 541T206 669T385 714Q485 714 563 669T686 542T730 350Q730 241 686 159T564 31T385 -14Q285 -14 207 31ZM463 78T518 113T600 210T628 350Q628 428
601 489T518 586T385 622Q307 622 252 587T170 490T142 350Q142 272 169 211T252 114T385 78Q463 78 518 113ZM291 822V917L478 822V764L291 822Z" />
<glyph unicode="&#xd3;" glyph-name="Oacute" horiz-adv-x="770" d="M285 -14T207 31T84 158T40 350Q40 459 84 541T206 669T385 714Q485 714 563 669T686 542T730 350Q730 241 686 159T564 31T385 -14Q285 -14 207 31ZM463 78T518 113T600 210T628 350Q628 428
601 489T518 586T385 622Q307 622 252 587T170 490T142 350Q142 272 169 211T252 114T385 78Q463 78 518 113ZM292 822L479 917V822L292 764V822Z" />
<glyph unicode="&#xd4;" glyph-name="Ocircumflex" horiz-adv-x="770" d="M285 -14T207 31T84 158T40 350Q40 459 84 541T206 669T385 714Q485 714 563 669T686 542T730 350Q730 241 686 159T564 31T385 -14Q285 -14 207 31ZM463 78T518 113T600 210T628 350Q628
428 601 489T518 586T385 622Q307 622 252 587T170 490T142 350Q142 272 169 211T252 114T385 78Q463 78 518 113ZM512 814V753L385 819L258 753V814L385 904L512 814Z" />
<glyph unicode="&#xd5;" glyph-name="Otilde" horiz-adv-x="770" d="M285 -14T207 31T84 158T40 350Q40 459 84 541T206 669T385 714Q485 714 563 669T686 542T730 350Q730 241 686 159T564 31T385 -14Q285 -14 207 31ZM463 78T518 113T600 210T628 350Q628 428
601 489T518 586T385 622Q307 622 252 587T170 490T142 350Q142 272 169 211T252 114T385 78Q463 78 518 113ZM452 788T434 793T391 810Q347 829 328 829Q312 829 303 820T294 793H229Q229 841 248 867T302 893Q318 893 336 888T379 871Q423 852 442 852Q458 852
467 861T476 888H541Q541 840 522 814T468 788Q452 788 434 793Z" />
<glyph unicode="&#xd6;" glyph-name="Odieresis" horiz-adv-x="770" d="M285 -14T207 31T84 158T40 350Q40 459 84 541T206 669T385 714Q485 714 563 669T686 542T730 350Q730 241 686 159T564 31T385 -14Q285 -14 207 31ZM463 78T518 113T600 210T628 350Q628
428 601 489T518 586T385 622Q307 622 252 587T170 490T142 350Q142 272 169 211T252 114T385 78Q463 78 518 113ZM246 869H332V794H246V869ZM438 869H524V794H438V869Z" />
<glyph unicode="&#xd7;" glyph-name="multiply" horiz-adv-x="406" d="M254 281L372 159L320 107L203 228L86 107L34 159L152 281L34 403L86 455L203 334L320 455L372 403L254 281Z" />
<glyph unicode="&#xd8;" glyph-name="Oslash" horiz-adv-x="770" d="M673 579T701 508T730 350Q730 241 686 159T564 31T385 -14Q288 -14 211 29L161 -44H70L150 73Q97 121 69 192T40 350Q40 459 84 541T206 669T385 714Q482 714 559 671L609 744H700L620 627Q673
579 701 508ZM142 291T158 241T206 154L506 593Q454 622 385 622Q307 622 252 587T170 490T142 350Q142 291 158 241ZM463 78T518 113T600 210T628 350Q628 409 612 459T564 546L264 107Q316 78 385 78Q463 78 518 113Z" />
<glyph unicode="&#xd9;" glyph-name="Ugrave" horiz-adv-x="724" d="M217 -14T145 67T72 297V700H167V323Q167 208 208 140T362 72Q475 72 516 140T557 323V700H652V297Q652 149 580 68T362 -14Q217 -14 145 67ZM268 822V917L455 822V764L268 822Z" />
<glyph unicode="&#xda;" glyph-name="Uacute" horiz-adv-x="724" d="M217 -14T145 67T72 297V700H167V323Q167 208 208 140T362 72Q475 72 516 140T557 323V700H652V297Q652 149 580 68T362 -14Q217 -14 145 67ZM269 822L456 917V822L269 764V822Z" />
<glyph unicode="&#xdb;" glyph-name="Ucircumflex" horiz-adv-x="724" d="M217 -14T145 67T72 297V700H167V323Q167 208 208 140T362 72Q475 72 516 140T557 323V700H652V297Q652 149 580 68T362 -14Q217 -14 145 67ZM489 814V753L362 819L235 753V814L362 904L489 814Z" />
<glyph unicode="&#xdc;" glyph-name="Udieresis" horiz-adv-x="724" d="M217 -14T145 67T72 297V700H167V323Q167 208 208 140T362 72Q475 72 516 140T557 323V700H652V297Q652 149 580 68T362 -14Q217 -14 145 67ZM223 869H309V794H223V869ZM415 869H501V794H415V869Z" />
<glyph unicode="&#xdd;" glyph-name="Yacute" horiz-adv-x="567" d="M577 700L331 303V0H236V303L-11 700H97L283 396L469 700H577ZM190 822L377 917V822L190 764V822Z" />
<glyph unicode="&#xde;" glyph-name="Thorn" horiz-adv-x="574" d="M80 700H180V545H345Q449 545 499 498T550 368Q550 285 499 238T345 191H180V0H80V700ZM338 276Q394 276 423 299T452 368Q452 413 423 436T338 460H180V276H338Z" />
<glyph unicode="&#xdf;" glyph-name="germandbls" horiz-adv-x="577" d="M291 -14T242 0V70Q295 56 347 56Q400 56 430 79T461 144Q461 184 438 208T370 260Q325 288 303 312T280 375Q280 409 296 435T355 506Q382 534 393 552T404 597Q404 637 378 660T302 684Q242
684 211 650T179 552V0H93V420H18L26 490H93V550Q93 655 150 709T304 764Q389 764 440 723T491 613Q491 570 477 543T436 485L419 466Q391 436 381 420T370 386Q370 363 387 347T440 307Q475 284 497 266T535 218T551 149Q551 70 492 28T346 -14Q291 -14 242 0Z"
/>
<glyph unicode="&#xe0;" glyph-name="agrave" horiz-adv-x="480" d="M107 -10T66 30T24 132Q24 225 112 265T317 307Q317 373 292 396T210 420Q179 420 148 411T81 376L68 449Q98 472 142 486T234 500Q297 500 334 478T389 405T407 265V165Q407 125 410 105T426
73T463 62H472L458 -10H451Q409 -10 385 -2T349 21T325 62Q263 -10 175 -10Q107 -10 66 30ZM228 62T261 80T317 128V245Q209 241 163 217T116 137Q116 99 136 81T192 62Q228 62 261 80ZM140 649V747L327 637V576L140 649Z" />
<glyph unicode="&#xe1;" glyph-name="aacute" horiz-adv-x="480" d="M107 -10T66 30T24 132Q24 225 112 265T317 307Q317 373 292 396T210 420Q179 420 148 411T81 376L68 449Q98 472 142 486T234 500Q297 500 334 478T389 405T407 265V165Q407 125 410 105T426
73T463 62H472L458 -10H451Q409 -10 385 -2T349 21T325 62Q263 -10 175 -10Q107 -10 66 30ZM228 62T261 80T317 128V245Q209 241 163 217T116 137Q116 99 136 81T192 62Q228 62 261 80ZM141 637L328 747V649L141 576V637Z" />
<glyph unicode="&#xe2;" glyph-name="acircumflex" horiz-adv-x="480" d="M107 -10T66 30T24 132Q24 225 112 265T317 307Q317 373 292 396T210 420Q179 420 148 411T81 376L68 449Q98 472 142 486T234 500Q297 500 334 478T389 405T407 265V165Q407 125 410 105T426
73T463 62H472L458 -10H451Q409 -10 385 -2T349 21T325 62Q263 -10 175 -10Q107 -10 66 30ZM228 62T261 80T317 128V245Q209 241 163 217T116 137Q116 99 136 81T192 62Q228 62 261 80ZM107 625L234 735L361 625V564L234 644L107 564V625Z" />
<glyph unicode="&#xe3;" glyph-name="atilde" horiz-adv-x="480" d="M107 -10T66 30T24 132Q24 225 112 265T317 307Q317 373 292 396T210 420Q179 420 148 411T81 376L68 449Q98 472 142 486T234 500Q297 500 334 478T389 405T407 265V165Q407 125 410 105T426
73T463 62H472L458 -10H451Q409 -10 385 -2T349 21T325 62Q263 -10 175 -10Q107 -10 66 30ZM228 62T261 80T317 128V245Q209 241 163 217T116 137Q116 99 136 81T192 62Q228 62 261 80ZM297 580T280 586T240 605Q217 616 204 621T177 627Q161 627 152 617T143 588H68Q70
642 92 670T154 699Q171 699 188 693T228 674Q251 663 264 658T291 652Q307 652 316 662T325 691H400Q398 637 376 609T314 580Q297 580 280 586Z" />
<glyph unicode="&#xe4;" glyph-name="adieresis" horiz-adv-x="480" d="M107 -10T66 30T24 132Q24 225 112 265T317 307Q317 373 292 396T210 420Q179 420 148 411T81 376L68 449Q98 472 142 486T234 500Q297 500 334 478T389 405T407 265V165Q407 125 410 105T426
73T463 62H472L458 -10H451Q409 -10 385 -2T349 21T325 62Q263 -10 175 -10Q107 -10 66 30ZM228 62T261 80T317 128V245Q209 241 163 217T116 137Q116 99 136 81T192 62Q228 62 261 80ZM95 671H181V591H95V671ZM287 671H373V591H287V671Z" />
<glyph unicode="&#xe5;" glyph-name="aring" horiz-adv-x="480" d="M107 -10T66 30T24 132Q24 225 112 265T317 307Q317 373 292 396T210 420Q179 420 148 411T81 376L68 449Q98 472 142 486T234 500Q297 500 334 478T389 405T407 265V165Q407 125 410 105T426
73T463 62H472L458 -10H451Q409 -10 385 -2T349 21T325 62Q263 -10 175 -10Q107 -10 66 30ZM228 62T261 80T317 128V245Q209 241 163 217T116 137Q116 99 136 81T192 62Q228 62 261 80ZM185 568T158 597T130 668Q130 709 158 738T234 768Q283 768 310 739T338 668Q338
626 311 597T234 568Q185 568 158 597ZM257 612T273 627T290 668Q290 692 274 708T234 724Q211 724 195 708T178 668Q178 643 194 628T234 612Q257 612 273 627Z" />
<glyph unicode="&#xe6;" glyph-name="ae" horiz-adv-x="780" d="M750 268T746 245H414Q417 153 464 112T585 70Q644 70 716 99L728 28Q659 -10 574 -10Q505 -10 453 15T367 87Q336 44 287 17T185 -10Q113 -10 69 30T24 132Q24 226 110 264T319 307Q317 365 292
392T210 420Q179 420 148 411T81 376L68 449Q98 472 142 486T234 500Q292 500 328 481T384 419Q415 457 458 478T556 500Q646 500 698 442T750 293Q750 268 746 245ZM657 307Q657 357 629 388T548 420Q497 420 463 391T418 307H657ZM244 62T279 81T341 136Q319
188 319 245Q212 244 164 218T116 137Q116 99 139 81T202 62Q244 62 279 81Z" />
<glyph unicode="&#xe7;" glyph-name="ccedilla" horiz-adv-x="454" d="M406 12T368 2T290 -10L276 -54H284Q324 -54 347 -75T371 -135Q371 -178 341 -202T265 -226Q221 -226 187 -207L202 -158Q233 -175 265 -175Q287 -175 300 -165T313 -137Q313 -118 301 -108T263
-97Q240 -97 217 -105L241 -7Q141 6 87 74T33 242Q33 358 98 429T293 500Q369 500 427 471L413 392Q352 420 291 420Q211 420 168 375T125 246Q125 163 166 116T289 69Q354 69 414 99L426 27Q406 12 368 2Z" />
<glyph unicode="&#xe8;" glyph-name="egrave" horiz-adv-x="512" d="M212 -10T153 24T62 118T31 249Q31 318 59 375T142 466T271 500Q365 500 423 445T482 293Q482 268 478 245H123Q132 150 181 110T307 70Q384 70 448 99L460 28Q375 -10 296 -10Q212 -10 153
24ZM389 307Q389 360 359 390T269 420Q211 420 178 392T131 307H389ZM184 649V747L371 637V576L184 649Z" />
<glyph unicode="&#xe9;" glyph-name="eacute" horiz-adv-x="512" d="M212 -10T153 24T62 118T31 249Q31 318 59 375T142 466T271 500Q365 500 423 445T482 293Q482 268 478 245H123Q132 150 181 110T307 70Q384 70 448 99L460 28Q375 -10 296 -10Q212 -10 153
24ZM389 307Q389 360 359 390T269 420Q211 420 178 392T131 307H389ZM185 637L372 747V649L185 576V637Z" />
<glyph unicode="&#xea;" glyph-name="ecircumflex" horiz-adv-x="512" d="M212 -10T153 24T62 118T31 249Q31 318 59 375T142 466T271 500Q365 500 423 445T482 293Q482 268 478 245H123Q132 150 181 110T307 70Q384 70 448 99L460 28Q375 -10 296 -10Q212 -10
153 24ZM389 307Q389 360 359 390T269 420Q211 420 178 392T131 307H389ZM151 625L278 735L405 625V564L278 644L151 564V625Z" />
<glyph unicode="&#xeb;" glyph-name="edieresis" horiz-adv-x="512" d="M212 -10T153 24T62 118T31 249Q31 318 59 375T142 466T271 500Q365 500 423 445T482 293Q482 268 478 245H123Q132 150 181 110T307 70Q384 70 448 99L460 28Q375 -10 296 -10Q212 -10 153
24ZM389 307Q389 360 359 390T269 420Q211 420 178 392T131 307H389ZM139 671H225V591H139V671ZM331 671H417V591H331V671Z" />
<glyph unicode="&#xec;" glyph-name="igrave" horiz-adv-x="212" d="M61 490H151V0H61V490ZM12 649V747L199 637V576L12 649Z" />
<glyph unicode="&#xed;" glyph-name="iacute" horiz-adv-x="212" d="M61 490H151V0H61V490ZM13 637L200 747V649L13 576V637Z" />
<glyph unicode="&#xee;" glyph-name="icircumflex" horiz-adv-x="212" d="M61 490H151V0H61V490ZM-21 625L106 735L233 625V564L106 644L-21 564V625Z" />
<glyph unicode="&#xef;" glyph-name="idieresis" horiz-adv-x="212" d="M61 490H151V0H61V490ZM-33 671H53V591H-33V671ZM159 671H245V591H159V671Z" />
<glyph unicode="&#xf0;" glyph-name="eth" horiz-adv-x="517" d="M413 537T448 445T484 257Q484 175 454 114T370 21T249 -12Q182 -12 132 17T55 97T28 205Q28 264 55 315T132 396T243 426Q288 426 321 410T374 371Q366 426 345 476T289 566L174 499L141 553L239
610Q196 641 141 654L156 701Q234 694 300 645L395 700L427 646L351 602Q413 537 448 445ZM307 71T340 109T373 208Q373 268 341 305T254 343Q197 343 163 304T128 210Q128 151 162 111T253 71Q307 71 340 109Z" />
<glyph unicode="&#xf1;" glyph-name="ntilde" horiz-adv-x="559" d="M61 490H131L141 438Q180 473 219 486T303 500Q503 500 503 270V0H413V270Q413 349 384 384T285 420Q241 420 205 404T151 356V0H61V490ZM357 580T340 586T300 605Q277 616 264 621T237 627Q221
627 212 617T203 588H128Q130 642 152 670T214 699Q231 699 248 693T288 674Q311 663 324 658T351 652Q367 652 376 662T385 691H460Q458 637 436 609T374 580Q357 580 340 586Z" />
<glyph unicode="&#xf2;" glyph-name="ograve" horiz-adv-x="550" d="M200 -10T145 23T61 115T32 245Q32 317 61 375T145 466T275 500Q349 500 404 467T489 375T518 245Q518 173 489 115T405 24T275 -10Q200 -10 145 23ZM347 70T386 116T426 245Q426 328 387 374T275
420Q203 420 164 374T124 245Q124 162 163 116T275 70Q347 70 386 116ZM181 649V747L368 637V576L181 649Z" />
<glyph unicode="&#xf3;" glyph-name="oacute" horiz-adv-x="550" d="M200 -10T145 23T61 115T32 245Q32 317 61 375T145 466T275 500Q349 500 404 467T489 375T518 245Q518 173 489 115T405 24T275 -10Q200 -10 145 23ZM347 70T386 116T426 245Q426 328 387 374T275
420Q203 420 164 374T124 245Q124 162 163 116T275 70Q347 70 386 116ZM182 637L369 747V649L182 576V637Z" />
<glyph unicode="&#xf4;" glyph-name="ocircumflex" horiz-adv-x="550" d="M200 -10T145 23T61 115T32 245Q32 317 61 375T145 466T275 500Q349 500 404 467T489 375T518 245Q518 173 489 115T405 24T275 -10Q200 -10 145 23ZM347 70T386 116T426 245Q426 328 387
374T275 420Q203 420 164 374T124 245Q124 162 163 116T275 70Q347 70 386 116ZM148 625L275 735L402 625V564L275 644L148 564V625Z" />
<glyph unicode="&#xf5;" glyph-name="otilde" horiz-adv-x="550" d="M200 -10T145 23T61 115T32 245Q32 317 61 375T145 466T275 500Q349 500 404 467T489 375T518 245Q518 173 489 115T405 24T275 -10Q200 -10 145 23ZM347 70T386 116T426 245Q426 328 387 374T275
420Q203 420 164 374T124 245Q124 162 163 116T275 70Q347 70 386 116ZM338 580T321 586T281 605Q258 616 245 621T218 627Q202 627 193 617T184 588H109Q111 642 133 670T195 699Q212 699 229 693T269 674Q292 663 305 658T332 652Q348 652 357 662T366 691H441Q439
637 417 609T355 580Q338 580 321 586Z" />
<glyph unicode="&#xf6;" glyph-name="odieresis" horiz-adv-x="550" d="M200 -10T145 23T61 115T32 245Q32 317 61 375T145 466T275 500Q349 500 404 467T489 375T518 245Q518 173 489 115T405 24T275 -10Q200 -10 145 23ZM347 70T386 116T426 245Q426 328 387
374T275 420Q203 420 164 374T124 245Q124 162 163 116T275 70Q347 70 386 116ZM136 671H222V591H136V671ZM328 671H414V591H328V671Z" />
<glyph unicode="&#xf7;" glyph-name="divide" horiz-adv-x="482" d="M191 503H291V403H191V503ZM46 319H436V243H46V319ZM191 159H291V59H191V159Z" />
<glyph unicode="&#xf8;" glyph-name="oslash" horiz-adv-x="550" d="M477 407T497 356T518 245Q518 173 489 115T405 24T275 -10Q217 -10 170 11L139 -40H58L112 48Q73 82 53 133T32 245Q32 317 61 375T145 466T275 500Q334 500 380 479L411 530H492L438 442Q477
407 497 356ZM124 168T158 122L336 409Q308 420 275 420Q203 420 164 374T124 245Q124 168 158 122ZM347 70T386 116T426 245Q426 322 392 368L214 81Q242 70 275 70Q347 70 386 116Z" />
<glyph unicode="&#xf9;" glyph-name="ugrave" horiz-adv-x="524" d="M149 -10T103 43T56 205V490H146V230Q146 150 173 110T260 70Q296 70 326 84T373 126V490H463V0H383L373 54Q349 21 317 6T237 -10Q149 -10 103 43ZM168 649V747L355 637V576L168 649Z" />
<glyph unicode="&#xfa;" glyph-name="uacute" horiz-adv-x="524" d="M149 -10T103 43T56 205V490H146V230Q146 150 173 110T260 70Q296 70 326 84T373 126V490H463V0H383L373 54Q349 21 317 6T237 -10Q149 -10 103 43ZM169 637L356 747V649L169 576V637Z" />
<glyph unicode="&#xfb;" glyph-name="ucircumflex" horiz-adv-x="524" d="M149 -10T103 43T56 205V490H146V230Q146 150 173 110T260 70Q296 70 326 84T373 126V490H463V0H383L373 54Q349 21 317 6T237 -10Q149 -10 103 43ZM135 625L262 735L389 625V564L262 644L135
564V625Z" />
<glyph unicode="&#xfc;" glyph-name="udieresis" horiz-adv-x="524" d="M149 -10T103 43T56 205V490H146V230Q146 150 173 110T260 70Q296 70 326 84T373 126V490H463V0H383L373 54Q349 21 317 6T237 -10Q149 -10 103 43ZM123 671H209V591H123V671ZM315 671H401V591H315V671Z"
/>
<glyph unicode="&#xfd;" glyph-name="yacute" horiz-adv-x="505" d="M211 22L7 490H107L260 126L398 490H498L198 -242H98L211 22ZM160 637L347 747V649L160 576V637Z" />
<glyph unicode="&#xfe;" glyph-name="thorn" horiz-adv-x="581" d="M388 500T440 466T520 373T548 245Q548 175 521 117T442 25T318 -10Q204 -10 150 62V-241H60V750H150V429Q217 500 318 500Q388 500 440 466ZM377 62T417 112T457 245Q457 325 417 372T303 420Q229
420 186 374T143 245Q143 162 186 112T303 62Q377 62 417 112Z" />
<glyph unicode="&#xff;" glyph-name="ydieresis" horiz-adv-x="505" d="M211 22L7 490H107L260 126L398 490H498L198 -242H98L211 22ZM114 671H200V591H114V671ZM306 671H392V591H306V671Z" />
<glyph unicode="&#x2013;" glyph-name="endash" horiz-adv-x="544" d="M0 354H544V268H0V354Z" />
<glyph unicode="&#x2014;" glyph-name="emdash" horiz-adv-x="716" d="M0 354H716V268H0V354Z" />
<glyph unicode="&#x2018;" glyph-name="quoteleft" horiz-adv-x="196" d="M166 700L130 593H165V487H57V583L109 700H166Z" />
<glyph unicode="&#x2019;" glyph-name="quoteright" horiz-adv-x="189" d="M30 487L66 594H31V700H139V604L87 487H30Z" />
<glyph unicode="&#x201a;" glyph-name="quotesinglbase" horiz-adv-x="189" d="M286 -107L322 0H287V106H395V10L343 -107H286Z" />
<glyph unicode="&#x201c;" glyph-name="quotedblleft" horiz-adv-x="356" d="M166 700L130 593H165V487H57V583L109 700H166ZM326 700L290 593H325V487H217V583L269 700H326Z" />
<glyph unicode="&#x201d;" glyph-name="quotedblright" horiz-adv-x="349" d="M30 487L66 594H31V700H139V604L87 487H30ZM190 487L226 594H191V700H299V604L247 487H190Z" />
<glyph unicode="&#x201e;" glyph-name="quotedblbase" horiz-adv-x="349" d="M286 -107L322 0H287V106H395V10L343 -107H286ZM190 -107L226 0H191V106H299V10L247 -107H190Z" />
<glyph unicode="&#x2022;" glyph-name="bullet" horiz-adv-x="306" d="M108 169T76 201T44 278Q44 323 76 355T153 387Q198 387 230 355T262 278Q262 233 230 201T153 169Q108 169 76 201Z" />
<glyph unicode="&#x2039;" glyph-name="guilsinglleft" horiz-adv-x="322" d="M14 284L173 490H282L123 284L282 78H173L14 284Z" />
<glyph unicode="&#x203a;" glyph-name="guilsinglright" horiz-adv-x="323" d="M200 284L41 490H150L309 284L150 78H41L200 284Z" />
</font>
</defs>
</svg>
